<svg width="200" height="231" viewBox="0 0 200 231" xmlns="http://www.w3.org/2000/svg">
  <defs>
    <linearGradient id="grad_crucible_ensemble" x1="0%" y1="0%" x2="100%" y2="100%">
      <stop offset="0%" style="stop-color:#8B4789;stop-opacity:1" />
      <stop offset="100%" style="stop-color:#8B4789;stop-opacity:0.7" />
    </linearGradient>
  </defs>

  <!-- Hexagon shape (Elixir style) -->
  <path d="M 100,5 L 190,62.5 L 190,177.5 L 100,235 L 10,177.5 L 10,62.5 Z"
        fill="url(#grad_crucible_ensemble)"
        stroke="#FFFFFF"
        stroke-width="3"/>

  <!-- Inner hexagon for depth -->
  <path d="M 100,25 L 170,67.5 L 170,172.5 L 100,215 L 30,172.5 L 30,67.5 Z"
        fill="none"
        stroke="#FFFFFF"
        stroke-width="1"
        opacity="0.3"/>

  <!-- Gear shape for the brain -->
  <path d="M100 120 a 20 20 0 1 0 0 -40 a 20 20 0 1 0 0 40z" fill="white" />
  <path d="M100 70 l 10 10 l -10 10 l -10 -10z" fill="white" />
  <path d="M100 130 l 10 -10 l -10 -10 l -10 10z" fill="white" />
  <path d="M70 100 l 10 10 l -10 10 l -10 -10z" fill="white" />
  <path d="M130 100 l -10 10 l -10 -10 l 10 -10z" fill="white" />

  <!-- Magnifying glass -->
  <circle cx="90" cy="100" r="30" stroke="white" stroke-width="5" fill="none" />
  <line x1="115" y1="125" x2="135" y2="145" stroke="white" stroke-width="5" />

  <!-- Small text at bottom -->
  <text x="100" y="210"
        font-family="Arial, sans-serif"
        font-size="14"
        font-weight="normal"
        fill="#FFFFFF"
        text-anchor="middle"
        opacity="0.9">
    Crucible
  </text>
</svg>
